<svg width="36" height="36" viewBox="0 0 36 36" fill="none" xmlns="http://www.w3.org/2000/svg">
<path d="M17 5C17 4.44772 17.4477 4 18 4C18.5523 4 19 4.44772 19 5V6C19 6.55228 18.5523 7 18 7C17.4477 7 17 6.55228 17 6V5Z" fill="#006666"/>
<path d="M5 19C4.44772 19 4 18.5523 4 18C4 17.4477 4.44772 17 5 17H6C6.55228 17 7 17.4477 7 18C7 18.5523 6.55228 19 6 19H5Z" fill="#006666"/>
<path d="M17 30C17 29.4477 17.4477 29 18 29C18.5523 29 19 29.4477 19 30V31C19 31.5523 18.5523 32 18 32C17.4477 32 17 31.5523 17 31V30Z" fill="#006666"/>
<path d="M30 19C29.4477 19 29 18.5523 29 18C29 17.4477 29.4477 17 30 17H31C31.5523 17 32 17.4477 32 18C32 18.5523 31.5523 19 31 19H30Z" fill="#006666"/>
<path d="M17 11C17 10.4477 17.4477 10 18 10C18.5523 10 19 10.4477 19 11V19H17V11Z" fill="#006666"/>
<path d="M17 17H26C26.5523 17 27 17.4477 27 18C27 18.5523 26.5523 19 26 19H17V17Z" fill="#006666"/>
<circle cx="18" cy="18" r="17" stroke="#006666" stroke-width="2"/>
</svg>
