<svg width="64" height="64" viewBox="0 0 64 64" fill="none" xmlns="http://www.w3.org/2000/svg">
<path d="M32.0087 64.0002C49.5663 64.0002 63.7996 49.767 63.7996 32.2093C63.7996 14.6517 49.5663 0.418457 32.0087 0.418457C14.451 0.418457 0.217773 14.6517 0.217773 32.2093C0.217773 49.767 14.451 64.0002 32.0087 64.0002Z" fill="#00EAD9"/>
<path d="M32.0083 60.939C47.8755 60.939 60.7383 48.0761 60.7383 32.209C60.7383 16.3419 47.8755 3.479 32.0083 3.479C16.1412 3.479 3.27832 16.3419 3.27832 32.209C3.27832 48.0761 16.1412 60.939 32.0083 60.939Z" fill="url(#paint0_linear_385_319)"/>
<path d="M32.3903 56.6356C46.1217 56.6356 57.2533 45.5041 57.2533 31.7726C57.2533 18.0412 46.1217 6.90967 32.3903 6.90967C18.6589 6.90967 7.52734 18.0412 7.52734 31.7726C7.52734 45.5041 18.6589 56.6356 32.3903 56.6356Z" fill="#006262"/>
<path d="M32.3905 46.1741C36.9565 46.1741 40.6579 42.4726 40.6579 37.9066C40.6579 33.3406 36.9565 29.6392 32.3905 29.6392C27.8245 29.6392 24.123 33.3406 24.123 37.9066C24.123 42.4726 27.8245 46.1741 32.3905 46.1741Z" fill="#006262"/>
<path d="M36.1545 44.3013H27.8386C27.5842 44.3013 27.3779 44.5075 27.3779 44.7619V45.1438C27.3779 45.3982 27.5842 45.6044 27.8386 45.6044H36.1545C36.4089 45.6044 36.6152 45.3982 36.6152 45.1438V44.7619C36.6152 44.5075 36.4089 44.3013 36.1545 44.3013Z" fill="white"/>
<path d="M35.9365 46.3257H28.069C27.8146 46.3257 27.6084 46.5319 27.6084 46.7863V47.1682C27.6084 47.4226 27.8146 47.6288 28.069 47.6288H35.9365C36.1909 47.6288 36.3971 47.4226 36.3971 47.1682V46.7863C36.3971 46.5319 36.1909 46.3257 35.9365 46.3257Z" fill="white"/>
<path d="M35.1298 48.4287H28.8746C28.6537 48.4287 28.4746 48.6078 28.4746 48.8287V49.1682C28.4746 49.3891 28.6537 49.5682 28.8746 49.5682H35.1298C35.3507 49.5682 35.5298 49.3891 35.5298 49.1682V48.8287C35.5298 48.6078 35.3507 48.4287 35.1298 48.4287Z" fill="white"/>
<path d="M34.209 50.4048H29.7904C29.6063 50.4048 29.457 50.554 29.457 50.7381V51.0109C29.457 51.195 29.6063 51.3443 29.7904 51.3443H34.209C34.3931 51.3443 34.5424 51.195 34.5424 51.0109V50.7381C34.5424 50.554 34.3931 50.4048 34.209 50.4048Z" fill="white"/>
<path d="M27.7572 43.1358C27.7557 41.7559 27.4537 40.3929 26.8723 39.1414C26.1207 37.5655 25.3388 37.1594 24.0417 35.1108C23.3021 34.0757 22.7219 32.9357 22.3203 31.7286C21.2354 27.9707 23.2235 24.4916 23.5993 23.8491C24.4789 22.289 25.7733 21.003 27.339 20.1336C28.7311 19.3812 30.2903 18.9914 31.8728 19.0001C33.4115 19.0208 34.9234 19.405 36.2853 20.1215C37.4843 20.7593 38.5424 21.6323 39.3963 22.6883C40.2503 23.7443 40.8826 24.9616 41.2555 26.2675C41.7582 27.9179 41.8001 29.6743 41.3767 31.3468C40.9626 32.7637 40.2748 34.0857 39.3523 35.238C38.8916 35.8442 38.7098 35.9654 38.2491 36.6442C37.6176 37.5834 37.1141 38.6026 36.752 39.6748C36.3749 40.7908 36.1526 41.9533 36.0914 43.1297L27.7572 43.1358Z" fill="white"/>
<path fill-rule="evenodd" clip-rule="evenodd" d="M32.3789 9.41309C32.9312 9.41309 33.3789 9.8608 33.3789 10.4131V16.0682C33.3789 16.6205 32.9312 17.0682 32.3789 17.0682C31.8266 17.0682 31.3789 16.6205 31.3789 16.0682V10.4131C31.3789 9.8608 31.8266 9.41309 32.3789 9.41309Z" fill="white"/>
<path fill-rule="evenodd" clip-rule="evenodd" d="M43.501 27.4209C43.501 26.8686 43.9487 26.4209 44.501 26.4209H50.4591C51.0114 26.4209 51.4591 26.8686 51.4591 27.4209C51.4591 27.9732 51.0114 28.4209 50.4591 28.4209H44.501C43.9487 28.4209 43.501 27.9732 43.501 27.4209Z" fill="white"/>
<path fill-rule="evenodd" clip-rule="evenodd" d="M12.8916 27.4209C12.8916 26.8686 13.3393 26.4209 13.8916 26.4209H19.8497C20.402 26.4209 20.8497 26.8686 20.8497 27.4209C20.8497 27.9732 20.402 28.4209 19.8497 28.4209H13.8916C13.3393 28.4209 12.8916 27.9732 12.8916 27.4209Z" fill="white"/>
<path fill-rule="evenodd" clip-rule="evenodd" d="M47.4382 14.5605C47.829 14.9507 47.8294 15.5839 47.4391 15.9747L42.9781 20.4418C42.5878 20.8326 41.9547 20.833 41.5639 20.4427C41.1731 20.0525 41.1727 19.4193 41.5629 19.0285L46.024 14.5614C46.4142 14.1707 47.0474 14.1702 47.4382 14.5605Z" fill="white"/>
<path fill-rule="evenodd" clip-rule="evenodd" d="M17.6454 14.4638C18.036 14.0733 18.6691 14.0733 19.0596 14.4638L23.7146 19.1188C24.1052 19.5093 24.1052 20.1425 23.7146 20.533C23.3241 20.9235 22.6909 20.9235 22.3004 20.533L17.6454 15.878C17.2549 15.4875 17.2549 14.8543 17.6454 14.4638Z" fill="white"/>
<defs>
<linearGradient id="paint0_linear_385_319" x1="32.0083" y1="2.46679" x2="32.0083" y2="68.3033" gradientUnits="userSpaceOnUse">
<stop offset="0.01" stop-color="#FFEE00"/>
<stop offset="1" stop-color="#F3A817"/>
</linearGradient>
</defs>
</svg>
